# xmcd CD database file
# Copyright (C) 1993-2000  Ti Kan
#
# Track frame offsets:
#	150
#	16892
#	29060
#	42433
#	58231
#	75718
#	91730
#	106953
#	124196
#	139088
#	155009
#	166496
#
# Disc length: 2405 seconds
#
# Revision: 1
# Processed by: cddbd v1.4PL0 Copyright (c) Steve Scherf et al.
# Submitted via: xmcd 2.6 PL0
#
DISCID=9f09630c
DTITLE=Music-Station Nr. 3  -  On The Road Again
DYEAR=1900
DGENRE=
TTITLE0=Thank God I'm A Country Boy
TTITLE1=Salty Dog
TTITLE2=Cotton Fields
TTITLE3=The Wild Rover
TTITLE4=Chattahoochee
TTITLE5=Jambalaya
TTITLE6=All My Loving
TTITLE7=Irish Medley
TTITLE8=Thank God For The Radio
TTITLE9=I'm From The Country
TTITLE10=How Mountain Girls Can Love
TTITLE11=On The Road Again
EXTD=
EXTT0=
EXTT1=
EXTT2=
EXTT3=
EXTT4=
EXTT5=
EXTT6=
EXTT7=
EXTT8=
EXTT9=
EXTT10=
EXTT11=
PLAYORDER=
